<svg width="91" height="59" viewBox="0 0 91 59" fill="none" xmlns="http://www.w3.org/2000/svg">
<mask id="mask0_128_10486" style="mask-type:luminance" maskUnits="userSpaceOnUse" x="1" y="2" width="89" height="55">
<path fill-rule="evenodd" clip-rule="evenodd" d="M1.91797 2.54492H89.9344V56.6253H1.91797V2.54492Z" fill="white"/>
</mask>
<g mask="url(#mask0_128_10486)">
<path fill-rule="evenodd" clip-rule="evenodd" d="M0.852539 1.48438H91.0001V57.6856H0.852539V1.48438Z" fill="white"/>
</g>
<mask id="mask1_128_10486" style="mask-type:luminance" maskUnits="userSpaceOnUse" x="0" y="0" width="91" height="59">
<path fill-rule="evenodd" clip-rule="evenodd" d="M48.7527 0.0429688C73.3387 0.0429688 88.9526 1.84977 89.7142 1.94008L89.7422 1.94344L90.9013 2.08428V56.7858L89.7426 56.9317C89.5957 56.9497 75.7024 58.6101 53.2344 58.8124H37.6688C15.2 58.6101 1.30531 56.9497 1.15874 56.9317L0 56.7905V2.08967L1.15874 1.94344C1.32158 1.92359 18.4328 -0.119082 45.4596 0.0537212C46.5643 0.0466589 47.666 0.0429688 48.7527 0.0429688ZM42.1493 2.6679C21.0777 2.6679 6.68358 3.9982 2.63777 4.42113V54.4537C6.68527 54.8769 21.0919 56.2075 42.1499 56.2075C43.2306 56.2075 44.3262 56.2038 45.4424 56.1968C46.5741 56.2038 47.6731 56.2075 48.7521 56.2075C69.823 56.2075 84.2174 54.8773 88.2632 54.4537V4.42147C84.008 3.97669 68.3132 2.52939 45.4596 2.67868C44.3279 2.67128 43.2286 2.6679 42.1493 2.6679Z" fill="white"/>
</mask>
<g mask="url(#mask1_128_10486)">
<path fill-rule="evenodd" clip-rule="evenodd" d="M-1.06543 -1.01758H91.967V59.8927H-1.06543V-1.01758Z" fill="#AA58EE"/>
</g>
<mask id="mask2_128_10486" style="mask-type:luminance" maskUnits="userSpaceOnUse" x="13" y="32" width="6" height="12">
<path fill-rule="evenodd" clip-rule="evenodd" d="M13.2253 32.1267C13.1445 34.8242 13.2827 40.1087 13.2253 43.8932C19.5078 44.5104 19.8602 31.3827 13.2253 32.1267Z" fill="white"/>
</mask>
<g mask="url(#mask2_128_10486)">
<path fill-rule="evenodd" clip-rule="evenodd" d="M12.1338 31.0356H19.1359V44.9746H12.1338V31.0356Z" fill="#AA58EE"/>
</g>
<mask id="mask3_128_10486" style="mask-type:luminance" maskUnits="userSpaceOnUse" x="13" y="16" width="5" height="11">
<path fill-rule="evenodd" clip-rule="evenodd" d="M13.1719 16.4385V26.5241C18.9149 27.0479 18.9149 15.8902 13.1719 16.4385Z" fill="white"/>
</mask>
<g mask="url(#mask3_128_10486)">
<path fill-rule="evenodd" clip-rule="evenodd" d="M12.1064 15.3584H18.5449V27.6022H12.1064V15.3584Z" fill="#AA58EE"/>
</g>
<mask id="mask4_128_10486" style="mask-type:luminance" maskUnits="userSpaceOnUse" x="3" y="4" width="84" height="51">
<path fill-rule="evenodd" clip-rule="evenodd" d="M76.5672 50.3932C72.6889 50.1075 67.108 48.208 67.108 34.7606C67.108 21.3131 67.277 12.7404 67.277 12.7404C67.277 12.7404 72.1754 11.8999 72.5133 11.7318C72.8511 11.5637 72.3444 24.8431 72.3444 32.4073C72.3444 39.9714 73.0781 42.9971 75.1051 42.9971C77.132 42.9971 77.359 40.8119 77.359 36.2734V10.7233C77.359 10.7233 81.1015 10.0509 82.7062 9.37852C82.7062 9.37852 82.4454 22.2407 82.6771 31.2306C83.0149 44.3419 81.1278 50.7294 76.5672 50.3932ZM59.7603 46.5271L53.8484 46.1909L47.9364 14.5894C47.9364 14.5894 51.9903 14.8415 53.8484 14.5894L56.8888 38.5426L60.1826 13.917C60.1826 13.917 62.5474 13.833 65.8412 13.0766C65.7567 13.1606 59.7603 46.5271 59.7603 46.5271ZM47.2925 44.7903C26.6851 55.476 24.6328 7.95578 46.5868 15.206L45.8963 20.5849C34.1892 16.0447 33.1308 39.4107 41.7805 40.4199L42.2251 40.3359V33.1358H39.8603V28.3172C42.2251 28.3172 45.2655 28.1491 47.2925 28.2332V44.7903ZM24.5419 47.4795L24.4294 13.3008C26.4563 13.637 29.6093 14.0851 29.6093 14.0851L29.8346 46.6952L24.5419 47.4795ZM8.15737 51.4438L8.11514 10.0929C20.1387 8.05696 27.1929 22.0716 18.9678 28.9889C29.3195 36.4798 19.6523 52.4012 8.15737 51.4438ZM85.8422 5.68147C85.6996 5.66502 71.3346 4.03955 48.38 4.03955C47.3857 4.03955 46.3989 4.04258 45.3878 4.04897C20.6589 3.89937 4.96217 5.66434 4.81319 5.68147L3.71289 5.80789V53.0716L4.824 53.1936C4.9669 53.2101 19.3999 54.8359 42.3555 54.8359C43.3494 54.8359 44.3696 54.9089 45.3807 54.9028C46.4057 54.9089 47.4293 54.9879 48.4215 54.9879H48.4229C71.3778 54.9879 85.6996 53.2861 85.8425 53.2696L86.8182 53.0676V5.80353L85.8422 5.68147Z" fill="white"/>
</mask>
<g mask="url(#mask4_128_10486)">
<path fill-rule="evenodd" clip-rule="evenodd" d="M2.64746 2.979H87.8839V56.0481H2.64746V2.979Z" fill="#AA58EE"/>
</g>
</svg>
