<svg width="267" height="36" viewBox="0 0 267 36" fill="none" xmlns="http://www.w3.org/2000/svg">
<path d="M12.8711 10.4372L8.92429 9.01873C6.65013 8.26699 4.60824 7.4404 4.60824 5.60862C4.60824 3.74055 6.83262 2.48554 10.1418 2.48554C12.534 2.48554 14.6807 3.1869 16.1833 4.46097L16.6949 4.89467L18.6612 3.16635L17.9597 2.58626C15.9877 0.955155 13.1673 0.0149712 10.2114 0H10.0845C5.20837 0.0181469 1.80886 2.3446 1.80886 5.67017C1.80886 9.37154 5.76356 10.7067 7.87384 11.4196L11.8189 12.8362C14.6535 13.8033 16.375 14.5392 16.375 16.6226C16.375 18.7869 13.8379 20.2423 10.0642 20.2423C7.16749 20.2423 4.43983 19.2788 2.57907 17.5996L2.08819 17.1567L0 18.8274V18.8283L0.685622 19.4387C2.3707 20.9399 5.36438 22.7278 10.0642 22.7278C15.4184 22.7278 19.1572 20.1913 19.1572 16.56C19.1572 12.8935 16.0529 11.5244 12.8711 10.4372Z" fill="#2B2A29"/>
<path d="M32.4814 2.78295H39.103V19.9334H32.4814V22.3571H48.5076V19.9334H41.886V2.78295H48.5076V0.375H32.4814V2.78295Z" fill="#2B2A29"/>
<path d="M128.469 11.8867H139.863V9.4787H128.469V2.78295H142.024V0.375H125.687V22.3571H142.412V19.9334H128.469V11.8867Z" fill="#2B2A29"/>
<path d="M153.342 2.78295H162.342V22.3571H165.14V2.78295H174.156V0.375H153.342V2.78295Z" fill="#2B2A29"/>
<path d="M189.777 10.2713V2.78295H194.316C200.083 2.78295 200.861 4.6126 200.861 6.40265C200.861 7.35914 200.861 10.2713 194.316 10.2713H189.777ZM203.719 6.40265C203.719 3.65309 202.168 0.375 194.781 0.375H186.995V22.3571H189.777V12.6951H194.313L201.478 22.3571H204.879L197.514 12.4846C201.479 11.8289 203.719 9.65971 203.719 6.40265Z" fill="#2B2A29"/>
<path d="M217.353 2.78295H223.977V19.9334H217.353V22.3571H233.38V19.9334H226.758V2.78295H233.38V0.375H217.353V2.78295Z" fill="#2B2A29"/>
<path d="M252.566 12.6325L253.879 9.63462C254.707 7.74402 255.449 6.0509 256.179 4.18857C256.779 5.72667 257.396 7.15047 258.08 8.73318L259.77 12.6325H252.566ZM257.216 0.375H255.133L245.349 22.3571H248.296L251.5 15.0563H260.818L263.989 22.3571H267L257.216 0.375Z" fill="#2B2A29"/>
<path d="M60.1807 0.851188V22.2966H63.0571V4.925L86.763 14.2197L114.348 3.41411L114.496 3.35634V0.425781L86.763 11.2896L60.1807 0.851188Z" fill="#2B2A29"/>
<path d="M107.91 10.7633L86.7608 19.055L65.7754 10.788V13.7322L86.7608 22.0005L111.601 12.2407V22.2987H114.494V8.18359L107.909 10.7633H107.91Z" fill="#2B2A29"/>
<path d="M128.097 35.1619C128.567 35.1619 128.988 35.0932 129.355 34.9559C129.721 34.8184 130.025 34.6181 130.267 34.3604L129.237 33.5996C128.94 33.9144 128.588 34.069 128.18 34.069C127.842 34.069 127.565 33.9773 127.358 33.7942C127.151 33.6167 127.047 33.3705 127.047 33.0671C127.047 32.7641 127.151 32.518 127.358 32.3347C127.565 32.1573 127.842 32.0657 128.18 32.0657C128.588 32.0657 128.94 32.2202 129.237 32.5351L130.267 31.7737C130.025 31.5161 129.721 31.3162 129.355 31.1788C128.988 31.0414 128.567 30.9727 128.097 30.9727C127.586 30.9727 127.123 31.0586 126.715 31.2361C126.307 31.4135 125.983 31.665 125.755 31.9798C125.52 32.3004 125.403 32.6611 125.403 33.0671C125.403 33.4736 125.52 33.8343 125.755 34.1491C125.983 34.4692 126.307 34.7154 126.715 34.8928C127.123 35.0704 127.586 35.1619 128.097 35.1619ZM136.222 31.0643H131.787V32.1115H133.203V35.0704H134.806V32.1115H136.222V31.0643ZM141.196 31.0643L140.201 32.7527L139.241 31.0643H137.521L139.372 33.8914C139.296 33.9716 139.213 34.0289 139.131 34.0632C139.041 34.0975 138.937 34.1148 138.819 34.1148C138.688 34.1148 138.522 34.0918 138.322 34.046L137.942 35.0188C138.26 35.1275 138.57 35.1791 138.882 35.1791C139.282 35.1791 139.649 35.0875 139.987 34.8986C140.318 34.7097 140.602 34.4405 140.83 34.0803L142.771 31.0643H141.196ZM149.176 34.0231V31.0643H145.086L145.031 32.2833C144.996 32.8557 144.927 33.2903 144.81 33.5823C144.692 33.8743 144.499 34.0231 144.215 34.0231H144.077V35.8542H145.57V35.0704H148.32V35.8542H149.812V34.0231H149.176ZM146.447 32.3978L146.461 32.1115H147.573V34.0231H146.081C146.198 33.8628 146.281 33.6452 146.337 33.3762C146.392 33.1072 146.427 32.7813 146.447 32.3978ZM151.74 35.0704H153.343V31.0643H151.74V35.0704ZM157.557 31.0643C157.101 31.0643 156.707 31.1273 156.369 31.2532C156.03 31.3791 155.775 31.5562 155.595 31.7909C155.409 32.0256 155.319 32.3004 155.319 32.6152C155.319 32.9183 155.402 33.1816 155.574 33.4048C155.74 33.6282 155.982 33.8055 156.292 33.9258L155.339 35.0704H157.046L157.785 34.1204H158.22V35.0704H159.823V31.0643H157.557ZM157.585 32.1058H158.22V33.1014H157.585C157.17 33.1014 156.963 32.9296 156.963 32.5924C156.963 32.2661 157.17 32.1058 157.585 32.1058ZM170.332 31.0643H168.633L167.604 32.5581H167.106V31.0643H165.476V35.0704H167.106V33.6224H167.562L168.488 35.0704H170.326L168.895 33.0098L170.332 31.0643ZM175.445 31.0643L174.45 32.7527L173.49 31.0643H171.77L173.621 33.8914C173.545 33.9716 173.462 34.0289 173.379 34.0632C173.289 34.0975 173.186 34.1148 173.068 34.1148C172.937 34.1148 172.771 34.0918 172.571 34.046L172.191 35.0188C172.509 35.1275 172.819 35.1791 173.13 35.1791C173.531 35.1791 173.897 35.0875 174.236 34.8986C174.567 34.7097 174.851 34.4405 175.079 34.0803L177.02 31.0643H175.445ZM178.333 31.0585L179.929 33.0328L178.23 35.0704H180.102L180.904 34.0346L181.719 35.0704H183.639L181.926 32.9697L183.494 31.0585H181.608L180.904 32.0028L180.199 31.0585H178.333ZM187.757 35.1619C188.275 35.1619 188.745 35.0704 189.159 34.8928C189.574 34.7154 189.899 34.4635 190.134 34.1434C190.369 33.8285 190.486 33.4679 190.486 33.0671C190.486 32.6668 190.369 32.3061 190.134 31.9855C189.899 31.6707 189.574 31.4188 189.159 31.2418C188.745 31.0643 188.275 30.9727 187.757 30.9727C187.239 30.9727 186.769 31.0643 186.354 31.2418C185.94 31.4188 185.615 31.6707 185.38 31.9855C185.145 32.3061 185.028 32.6668 185.028 33.0671C185.028 33.4679 185.145 33.8285 185.38 34.1434C185.615 34.4635 185.94 34.7154 186.354 34.8928C186.769 35.0704 187.239 35.1619 187.757 35.1619ZM187.757 34.069C187.556 34.069 187.37 34.0289 187.211 33.943C187.045 33.8629 186.914 33.7484 186.817 33.5938C186.72 33.4449 186.672 33.2675 186.672 33.0671C186.672 32.8672 186.72 32.6896 186.817 32.5351C186.914 32.3863 187.045 32.2718 187.211 32.1859C187.37 32.1058 187.556 32.0657 187.757 32.0657C187.957 32.0657 188.144 32.1058 188.309 32.1859C188.468 32.2718 188.6 32.3863 188.697 32.5351C188.793 32.6896 188.842 32.8672 188.842 33.0671C188.842 33.2675 188.793 33.4449 188.697 33.5938C188.6 33.7484 188.468 33.8629 188.309 33.943C188.144 34.0289 187.957 34.069 187.757 34.069ZM195.592 31.0643V32.4835H194.086V31.0643H192.455V35.0704H194.086V33.5938H195.592V35.0704H197.222V31.0643H195.592ZM202.065 32.2947H201.064V31.0643H199.461V35.0704H201.858C202.508 35.0704 203.019 34.9444 203.393 34.6924C203.765 34.4463 203.952 34.0861 203.952 33.6167C203.952 33.1816 203.786 32.8499 203.461 32.6267C203.137 32.4035 202.667 32.2947 202.065 32.2947ZM201.748 34.1261H201.064V33.2389H201.748C202.128 33.2389 202.314 33.3705 202.314 33.6396C202.314 33.7942 202.259 33.9087 202.155 33.9946C202.052 34.0803 201.913 34.1261 201.748 34.1261ZM213.465 31.0643H209.03V32.1115H210.446V35.0704H212.049V32.1115H213.465V31.0643ZM218.883 35.0704H220.569L218.454 31.0643H216.852L214.738 35.0704H216.396L216.721 34.3719H218.558L218.883 35.0704ZM217.17 33.3992L217.639 32.392L218.109 33.3992H217.17ZM229.971 31.0643H225.536V32.1115H226.952V35.0704H228.555V32.1115H229.971V31.0643ZM233.495 34.0517V33.525H235.54V32.5523H233.495V32.0829H235.824V31.0643H231.892V35.0704H235.913V34.0517H233.495ZM237.619 31.0585L239.215 33.0328L237.515 35.0704H239.388L240.189 34.0346L241.004 35.0704H242.925L241.212 32.9697L242.78 31.0585H240.894L240.189 32.0028L239.485 31.0585H237.619ZM247.756 31.0643V32.4835H246.25V31.0643H244.619V35.0704H246.25V33.5938H247.756V35.0704H249.386V31.0643H247.756ZM251.625 35.0704H253.228V31.0643H251.625V35.0704ZM260.281 31.0643H258.582L257.552 32.5581H257.055V31.0643H255.424V35.0704H257.055V33.6224H257.511L258.436 35.0704H260.274L258.844 33.0098L260.281 31.0643ZM261.995 35.0704H263.535L265.194 32.9927V35.0704H266.797V31.0643H265.263L263.598 33.1472V31.0643H261.995V35.0704Z" fill="#2B2A29"/>
</svg>
